<?xml version="1.0" standalone="no"?><!DOCTYPE svg PUBLIC "-//W3C//DTD SVG 1.1//EN" "http://www.w3.org/Graphics/SVG/1.1/DTD/svg11.dtd"><svg t="1683857476877" class="icon" viewBox="0 0 1024 1024" version="1.1" xmlns="http://www.w3.org/2000/svg" p-id="6417" xmlns:xlink="http://www.w3.org/1999/xlink" width="200" height="200"><path d="M512.008 81.858c-237.562 0-430.14 192.586-430.14 430.146 0 237.552 192.578 430.134 430.14 430.134 237.546 0 430.132-192.582 430.132-430.134 0-237.56-192.586-430.146-430.132-430.146z" fill="#EDF3FC" p-id="6418"></path><path d="M512.008 2C230.788 2 2 230.786 2 512.004 2 793.218 230.788 1022 512.008 1022 793.222 1022 1022 793.218 1022 512.004 1022 230.786 793.222 2 512.008 2z m0 1003.662c-272.21 0-493.662-221.454-493.662-493.658C18.346 239.796 239.8 18.338 512.008 18.338c272.204 0 493.648 221.458 493.648 493.666 0 272.204-221.446 493.658-493.648 493.658z" fill="#EDF3FC" p-id="6419"></path><path d="M511.994 314.112c-91.618 0-165.904 74.286-165.904 165.926 0 91.622 74.288 165.91 165.904 165.91 91.658 0 165.916-74.288 165.916-165.91 0-91.64-74.258-165.926-165.916-165.926z" fill="#8AC9F9" p-id="6420"></path><path d="M511.994 174.858c-63.812 0-115.724 51.916-115.724 115.724V361.2a166.384 166.384 0 0 1 38.83-28.178v-42.438c0-42.394 34.498-76.89 76.894-76.89 42.408 0 76.906 34.496 76.906 76.89v42.434a166.312 166.312 0 0 1 38.83 28.174v-70.608c0-63.81-51.914-115.726-115.736-115.726z" fill="#6857E5" p-id="6421"></path><path d="M511.994 359.128c-66.76 0-120.884 54.122-120.884 120.91 0 66.758 54.126 120.896 120.884 120.896 66.782 0 120.912-54.138 120.912-120.896 0-66.79-54.13-120.91-120.912-120.91z" fill="#FFBE1B" p-id="6422"></path><path d="M511.994 389.28c-50.112 0-90.744 40.622-90.744 90.756 0 50.11 40.632 90.75 90.744 90.75 50.132 0 90.756-40.64 90.756-90.75 0-50.134-40.622-90.756-90.756-90.756z" fill="#FFE37B" p-id="6423"></path><path d="M548.588 485.696c-3.232-3.736-7.574-6.202-13.034-7.366 1.508-0.674 2.56-1.158 3.148-1.462 0.588-0.284 1.64-1.024 3.148-2.2 4.454-3.354 6.684-8.494 6.684-15.366 0-5.708-1.972-10.828-5.918-15.36-2.198-2.446-5.442-4.37-9.772-5.802a38.266 38.266 0 0 0-4.118-1.062v-11.206h-15.432v10.126h-10.38v-10.126h-15.456v10.126h-16.882v16.638h12.57v54.778h-12.57v16.63h16.882v10.134h15.456v-10.134h10.38v10.134h15.432v-10.516c8.392-0.892 14.562-3.478 18.414-7.794 4.198-4.702 6.294-10.122 6.294-16.264 0-5.538-1.622-10.164-4.846-13.908z m-45.778-33.06h9.452c5.792 0 9.896 0.618 12.332 1.878 2.436 1.248 3.658 3.848 3.658 7.756 0 3.894-1.326 6.444-3.972 7.602-2.65 1.186-6.71 1.772-12.152 1.772h-9.316v-19.008z m26.136 52.704c-2.814 1.392-7.042 2.074-12.664 2.074h-13.47v-20.27h11.582c6.562 0 11.31 0.654 14.298 1.944 2.964 1.308 4.464 3.992 4.464 8.068 0 4.06-1.404 6.798-4.21 8.184z" fill="#FFFFFF" p-id="6424"></path><path d="M334.358 332.814a77.128 77.128 0 0 1-56.074-56.076l-1.188-4.708-1.182 4.708a77.138 77.138 0 0 1-56.088 56.076l-4.7 1.184 4.7 1.18a77.13 77.13 0 0 1 56.088 56.08l1.182 4.708 1.188-4.708a77.118 77.118 0 0 1 56.074-56.08l4.714-1.18-4.714-1.184zM364.668 227.116a45.65 45.65 0 0 1-33.192-33.192l-0.702-2.788-0.7 2.788a45.654 45.654 0 0 1-33.2 33.192l-2.782 0.702 2.782 0.7a45.654 45.654 0 0 1 33.2 33.196l0.7 2.786 0.702-2.786a45.652 45.652 0 0 1 33.192-33.196l2.79-0.7-2.79-0.702z" fill="#FFBE1B" p-id="6425"></path><path d="M777.536 548.124a54.482 54.482 0 0 1-39.578-39.58l-0.836-3.33-0.828 3.33a54.48 54.48 0 0 1-39.588 39.58l-3.318 0.83 3.318 0.83a54.46 54.46 0 0 1 39.588 39.58l0.828 3.326 0.836-3.326a54.464 54.464 0 0 1 39.578-39.58l3.334-0.83-3.334-0.83zM839.328 440.732a78.8 78.8 0 0 1-57.268-57.264l-1.198-4.808-1.206 4.808a78.746 78.746 0 0 1-57.276 57.264l-4.786 1.208 4.786 1.214a78.726 78.726 0 0 1 57.276 57.252l1.206 4.806 1.198-4.806a78.772 78.772 0 0 1 57.268-57.252l4.814-1.214-4.814-1.208z" fill="#5D8EF9" p-id="6426"></path><path d="M535.474 777.49l-5.96-89.164-17.514-15.992-17.518 15.992-0.006 0.104 9.348 9.348-10.194 10.194 10.194 10.194-12.146 12.146-3.154 47.18c-17.3 8.632-29.19 26.494-29.19 47.144 0 29.086 23.58 52.666 52.666 52.666s52.666-23.58 52.666-52.666c0-20.652-11.888-38.514-29.192-47.146z m-23.476 86.144c-11.044 0-19.998-8.954-19.998-20 0-11.048 8.954-20.002 19.998-20.002 11.046 0 20.002 8.954 20.002 20.002 0 11.046-8.956 20-20.002 20zM780.114 715.274c-11.878-16.892-31.88-24.664-50.998-21.772l-56.164-69.508-23.528-3.006-5.13 23.158 0.054 0.088 13.022 2.27-2.474 14.202 14.202 2.474-2.95 16.922 24.56 40.408c-9.188 17.014-8.638 38.464 3.24 55.356 16.73 23.792 49.584 29.518 73.376 12.786 23.796-16.732 29.52-49.584 12.79-73.378z m-20.652 62.198c-9.034 6.354-21.508 4.178-27.862-4.856-6.354-9.036-4.182-21.51 4.854-27.864 9.036-6.354 21.512-4.18 27.866 4.856 6.354 9.032 4.18 21.51-4.858 27.864zM379.704 644.144l-5.13-23.158-23.528 3.006-56.162 69.508c-19.118-2.892-39.118 4.88-50.996 21.772-16.73 23.794-11.004 56.646 12.788 73.376 23.792 16.732 56.644 11.006 73.376-12.786 11.878-16.892 12.428-38.342 3.24-55.356l24.56-40.408-2.95-16.922 14.202-2.474-2.474-14.202 13.022-2.27 0.052-0.086z m-87.306 128.472c-6.354 9.036-18.828 11.21-27.862 4.856-9.038-6.354-11.212-18.83-4.858-27.864 6.354-9.036 18.83-11.21 27.866-4.856 9.036 6.354 11.208 18.828 4.854 27.864z" fill="#330D84" p-id="6427"></path></svg>